<?xml version="1.0" standalone="no"?>
<!DOCTYPE svg PUBLIC "-//W3C//DTD SVG 20010904//EN"
 "http://www.w3.org/TR/2001/REC-SVG-20010904/DTD/svg10.dtd">
<svg version="1.0" xmlns="http://www.w3.org/2000/svg"
 width="512.000000pt" height="512.000000pt" viewBox="0 0 512.000000 512.000000"
 preserveAspectRatio="xMidYMid meet">
<metadata>
Created by potrace 1.11, written by Peter Selinger 2001-2013
</metadata>
<g transform="translate(0.000000,512.000000) scale(0.100000,-0.100000)"
fill="#000000" stroke="none">
<path d="M4796 5099 c-26 -20 -27 -26 -25 -92 l2 -71 -119 -22 c-65 -12 -153
-31 -195 -43 -41 -11 -78 -21 -81 -21 -4 0 -14 25 -23 55 -19 66 -44 95 -83
95 -70 0 -89 -55 -55 -155 11 -33 13 -50 5 -53 -40 -13 -279 -139 -337 -176
l-70 -46 -30 37 c-81 100 -114 115 -160 68 -32 -32 -31 -63 3 -111 16 -21 36
-50 45 -64 l17 -26 -77 -64 c-41 -36 -110 -103 -151 -150 -42 -47 -79 -86 -84
-88 -4 -2 -33 15 -64 37 -66 47 -95 51 -129 16 -46 -45 -30 -85 64 -155 l34
-26 -69 -115 c-38 -63 -84 -147 -103 -187 -19 -40 -41 -72 -48 -72 -7 0 -35 9
-63 20 -28 11 -64 20 -80 20 -59 0 -90 -67 -55 -117 8 -12 39 -29 68 -39 90
-29 88 -27 71 -82 -20 -66 -51 -187 -64 -255 l-12 -58 -87 6 c-83 7 -89 6
-110 -16 -26 -28 -27 -69 -3 -98 13 -17 37 -25 97 -34 l80 -13 0 -67 c0 -37
-2 -119 -3 -183 l-2 -115 -70 7 c-83 8 -123 -5 -140 -45 -13 -32 0 -75 27 -89
10 -5 55 -13 101 -17 l82 -7 0 -184 0 -184 -71 0 c-39 0 -79 -5 -90 -11 -46
-24 -42 -105 7 -128 14 -6 54 -11 89 -11 l65 0 0 -195 0 -195 -65 0 c-35 0
-75 -5 -89 -11 -49 -23 -53 -104 -7 -128 11 -6 51 -11 90 -11 l71 0 0 -194 0
-194 -75 -4 c-86 -4 -118 -25 -118 -77 0 -55 25 -71 115 -71 l78 0 0 -200 0
-200 -74 0 c-89 0 -119 -18 -119 -70 0 -55 39 -80 124 -80 l69 0 0 -129 c0
-71 5 -142 10 -157 21 -55 68 -69 114 -33 l26 20 0 150 0 149 185 0 185 0 0
-136 c0 -84 4 -144 12 -157 26 -50 69 -60 112 -26 l26 20 0 150 0 149 85 0
c94 0 128 11 144 47 15 34 14 47 -9 76 -20 25 -27 26 -118 29 l-97 3 0 195 0
195 97 3 c91 3 98 4 118 29 23 30 24 42 9 77 -16 34 -56 46 -150 46 l-79 0 0
195 0 195 95 0 c88 0 98 2 120 25 30 29 32 64 6 96 -17 22 -28 24 -120 27
l-101 4 0 193 0 193 101 4 c92 3 103 5 120 27 26 32 24 67 -6 96 -22 23 -32
25 -120 25 l-95 0 0 175 0 176 86 -3 c83 -3 86 -2 110 25 30 35 30 59 1 92
-20 24 -31 27 -111 32 l-89 6 7 140 c3 78 8 142 10 144 2 2 38 -2 80 -8 72
-11 80 -10 104 8 19 14 28 31 30 56 4 46 -24 73 -86 81 -117 17 -111 14 -100
54 5 21 20 71 34 113 l24 76 73 -25 c88 -31 122 -26 142 20 23 55 0 86 -86
118 -32 12 -59 27 -59 32 0 13 46 92 88 150 l33 47 65 -44 c74 -51 90 -54 128
-24 22 17 26 28 24 57 -2 30 -12 43 -58 80 -30 25 -56 48 -58 52 -2 4 32 38
74 76 l76 68 24 -29 c60 -74 73 -85 96 -85 14 0 37 9 52 21 38 30 35 74 -10
134 -29 38 -34 49 -23 56 41 27 157 88 172 91 15 2 23 -9 37 -55 10 -32 27
-65 37 -72 40 -31 105 -9 117 39 3 13 -3 52 -14 87 -10 35 -18 64 -17 65 6 6
180 44 223 50 l51 6 5 -67 c6 -74 33 -115 75 -115 60 0 83 41 75 132 -4 54 -3
57 21 63 36 10 60 40 59 76 -1 42 -28 69 -69 69 -18 0 -33 1 -33 3 -20 157
-46 424 -43 430 2 4 26 7 54 7 67 0 97 30 89 90 -4 33 -38 53 -102 59 l-63 6
-6 60 c-6 47 -12 64 -33 82 -34 29 -56 29 -90 2z m-2 -341 c3 -13 12 -95 21
-183 8 -88 18 -174 20 -191 l5 -31 -79 -12 c-43 -6 -110 -20 -148 -31 -37 -10
-71 -16 -74 -12 -11 14 -120 392 -115 401 6 9 178 53 271 70 83 15 94 13 99
-11z m-461 -306 c32 -108 57 -202 57 -208 0 -6 -19 -19 -42 -30 -23 -10 -76
-38 -117 -62 -41 -23 -78 -41 -82 -40 -6 3 -154 201 -227 305 l-22 31 67 43
c60 38 290 158 303 159 3 0 31 -89 63 -198z m-435 -258 c62 -85 115 -160 118
-167 2 -7 -38 -52 -91 -101 l-95 -87 -164 117 -165 118 40 47 c44 53 227 229
238 229 3 0 57 -70 119 -156z m-313 -365 l153 -111 -44 -66 c-25 -36 -56 -86
-69 -113 -14 -26 -29 -50 -34 -53 -9 -6 -348 110 -365 125 -19 17 168 343 192
334 7 -3 82 -55 167 -116z m-240 -424 c98 -36 180 -65 181 -65 2 0 -8 -31 -21
-69 -13 -38 -29 -94 -36 -125 -7 -31 -15 -59 -18 -61 -7 -4 -364 45 -369 50
-9 9 70 335 81 335 1 0 83 -29 182 -65z m-87 -449 c89 -13 165 -26 168 -28 2
-3 2 -72 -2 -154 l-7 -149 -166 6 c-91 4 -174 7 -183 8 -16 1 -18 12 -18 79 0
44 3 120 6 170 6 75 10 92 23 92 9 -1 89 -11 179 -24z m130 -482 l32 -5 0
-175 0 -174 -182 2 -183 3 -3 170 c-1 93 -1 174 2 180 4 11 262 10 334 -1z
m32 -699 l0 -195 -185 0 -185 0 0 195 0 195 185 0 185 0 0 -195z m0 -540 l0
-195 -185 0 -185 0 0 188 c0 104 3 192 7 195 3 4 87 7 185 7 l178 0 0 -195z
m0 -545 l0 -200 -182 2 -183 3 -3 185 c-1 101 0 190 2 197 4 10 48 13 186 13
l180 0 0 -200z"/>
<path d="M231 4003 c-16 -14 -24 -34 -29 -83 l-7 -65 -50 -3 c-79 -4 -95 -10
-109 -44 -26 -62 14 -108 95 -108 47 0 48 -1 44 -27 -3 -16 -12 -98 -20 -183
-21 -220 -22 -220 -49 -220 -28 0 -72 -32 -78 -58 -10 -35 18 -82 52 -88 l31
-7 -3 -73 c-3 -64 0 -76 19 -95 27 -27 79 -28 105 -2 12 13 20 40 25 86 3 37
9 69 12 71 6 4 145 -19 171 -28 8 -3 34 -10 57 -16 l41 -10 -19 -68 c-23 -79
-14 -113 32 -133 53 -22 96 15 114 98 3 18 11 35 16 38 9 6 141 -55 176 -83
l23 -17 -35 -49 c-38 -54 -44 -89 -19 -124 11 -16 25 -22 55 -22 36 0 43 5 81
54 l42 54 46 -38 c55 -47 115 -109 109 -113 -2 -2 -27 -20 -55 -40 -29 -21
-55 -44 -58 -53 -12 -30 -6 -64 14 -84 32 -32 74 -25 140 22 33 23 61 40 63
37 15 -17 87 -130 101 -157 16 -32 16 -32 -6 -41 -116 -45 -138 -63 -138 -114
0 -31 39 -67 73 -67 14 0 52 11 83 25 31 14 60 25 65 25 7 0 46 -113 63 -182
7 -29 5 -30 -96 -44 -62 -8 -90 -35 -86 -81 2 -25 11 -42 30 -56 24 -18 32
-19 104 -8 42 6 78 10 79 9 2 -2 6 -62 10 -135 l7 -131 -102 -4 c-93 -3 -103
-5 -121 -27 -26 -32 -24 -67 6 -96 22 -23 32 -25 120 -25 l95 0 0 -195 0 -195
-79 0 c-94 0 -134 -12 -150 -46 -15 -35 -14 -47 9 -77 20 -25 27 -26 118 -29
l97 -3 0 -195 0 -195 -97 -3 c-91 -3 -98 -4 -118 -29 -23 -29 -24 -42 -9 -76
16 -36 50 -47 144 -47 l85 0 0 -130 c0 -117 2 -132 20 -150 27 -27 81 -26 106
1 16 18 19 40 22 150 l4 129 184 0 184 0 0 -130 c0 -117 2 -132 20 -150 27
-27 81 -26 106 1 16 18 19 40 22 149 l4 128 74 4 c86 4 117 25 117 79 0 51
-31 69 -119 69 l-74 0 0 200 0 200 78 0 c90 0 115 16 115 71 0 52 -32 73 -118
77 l-75 4 0 194 0 194 69 0 c84 0 98 5 116 40 19 36 4 83 -31 99 -14 6 -53 11
-88 11 l-63 0 -7 176 c-4 97 -5 179 -1 182 4 4 41 12 83 19 57 9 81 17 94 34
26 31 23 71 -7 99 -24 23 -28 23 -108 14 -55 -7 -84 -7 -89 0 -3 5 -12 39 -19
75 -6 36 -27 117 -46 180 -19 62 -33 115 -31 117 2 2 31 15 63 30 77 33 95 50
95 89 0 37 -35 75 -68 75 -12 0 -51 -12 -87 -26 -36 -15 -67 -25 -69 -23 -2 2
-23 42 -46 89 -24 47 -65 119 -91 161 -27 42 -49 80 -49 85 0 5 23 25 51 44
28 19 55 42 60 51 15 29 10 68 -11 89 -32 32 -79 26 -139 -19 l-52 -39 -157
157 -157 156 42 63 c24 35 43 74 43 88 0 34 -34 64 -72 64 -40 -1 -53 -10
-101 -77 l-38 -52 -77 51 c-42 27 -137 79 -209 115 -73 36 -133 65 -133 66 0
1 7 24 15 51 23 75 20 111 -11 135 -54 42 -101 14 -129 -78 -10 -34 -19 -61
-20 -61 -2 0 -21 7 -45 15 -38 13 -230 55 -320 69 l-35 6 3 65 c5 83 -13 115
-62 115 -19 0 -43 -8 -55 -17z m232 -338 c101 -18 237 -55 237 -64 0 -17 -113
-387 -120 -395 -5 -5 -44 0 -92 12 -46 12 -106 24 -134 28 -28 3 -56 9 -62 13
-6 4 -2 77 14 216 12 116 23 211 23 212 1 3 7 2 134 -22z m510 -171 c62 -31
143 -76 180 -100 l68 -44 -43 -58 c-195 -265 -209 -283 -221 -274 -7 6 -62 36
-123 69 l-110 58 60 203 c33 111 64 202 69 202 5 0 59 -25 120 -56z m584 -444
l63 -69 -32 -24 c-18 -13 -93 -68 -167 -121 l-134 -96 -91 87 c-50 47 -92 90
-94 94 -2 4 51 83 118 174 l121 165 77 -70 c42 -39 105 -102 139 -140z m197
-257 c65 -102 138 -241 129 -246 -6 -4 -278 -116 -349 -144 -7 -2 -27 22 -45
54 -18 32 -48 79 -66 105 -19 27 -33 53 -31 59 3 9 302 234 316 238 1 1 22
-29 46 -66z m261 -623 c13 -57 23 -105 22 -107 -2 -1 -363 -53 -373 -53 -2 0
-8 19 -14 43 -6 23 -23 79 -37 124 -15 45 -25 84 -22 86 2 2 83 36 179 75
l175 71 23 -67 c13 -37 34 -114 47 -172z m48 -372 c4 -62 7 -139 7 -170 l0
-58 -183 0 -184 0 -6 142 c-4 78 -5 143 -3 146 5 5 299 49 337 51 l26 1 6
-112z m7 -573 l0 -195 -185 0 -185 0 0 195 0 195 185 0 185 0 0 -195z m-5
-545 l0 -195 -182 -3 -183 -2 0 200 0 200 183 -2 182 -3 0 -195z"/>
</g>
</svg>
